<svg width="18" height="18" viewBox="0 0 18 18" fill="none" xmlns="http://www.w3.org/2000/svg">
<path d="M2.25 6.75C2.25 5.92157 2.92157 5.25 3.75 5.25H4.44722C4.94875 5.25 5.4171 4.99935 5.6953 4.58205L6.3047 3.66795C6.5829 3.25065 7.05125 3 7.55278 3H10.4472C10.9488 3 11.4171 3.25065 11.6953 3.66795L12.3047 4.58205C12.5829 4.99935 13.0512 5.25 13.5528 5.25H14.25C15.0784 5.25 15.75 5.92157 15.75 6.75V13.5C15.75 14.3284 15.0784 15 14.25 15H3.75C2.92157 15 2.25 14.3284 2.25 13.5V6.75Z" stroke="#737373" stroke-width="2" stroke-linecap="round" stroke-linejoin="round"/>
<path d="M11.25 9.75C11.25 10.9926 10.2426 12 9 12C7.75736 12 6.75 10.9926 6.75 9.75C6.75 8.50736 7.75736 7.5 9 7.5C10.2426 7.5 11.25 8.50736 11.25 9.75Z" stroke="#737373" stroke-width="2" stroke-linecap="round" stroke-linejoin="round"/>
</svg>
