<svg width="25" height="24" viewBox="0 0 25 24" fill="none" xmlns="http://www.w3.org/2000/svg">
<path d="M19.5 11H5.5M19.5 11C20.6046 11 21.5 11.8954 21.5 13V19C21.5 20.1046 20.6046 21 19.5 21H5.5C4.39543 21 3.5 20.1046 3.5 19V13C3.5 11.8954 4.39543 11 5.5 11M19.5 11V9C19.5 7.89543 18.6046 7 17.5 7M5.5 11V9C5.5 7.89543 6.39543 7 7.5 7M7.5 7V5C7.5 3.89543 8.39543 3 9.5 3H15.5C16.6046 3 17.5 3.89543 17.5 5V7M7.5 7H17.5" stroke="#D4D4D4" stroke-width="2" stroke-linecap="round" stroke-linejoin="round"/>
</svg>
