<svg width="25" height="25" viewBox="0 0 25 25" fill="none" xmlns="http://www.w3.org/2000/svg">
<path fill-rule="evenodd" clip-rule="evenodd" d="M9.46552 2.62067C13.3315 2.62067 16.4655 5.75468 16.4655 9.62067C16.4655 13.4867 13.3315 16.6207 9.46552 16.6207C8.62528 16.6207 7.82174 16.4731 7.07798 16.2032C6.75014 16.0843 6.38558 16.0577 6.02999 16.145C5.0749 16.3796 4.09988 16.5284 3.11658 16.5893C3.48634 15.615 3.61409 14.5618 3.4841 13.5215C3.45519 13.29 3.3795 13.0871 3.28958 12.9191C2.76398 11.9374 2.46552 10.8154 2.46552 9.62067C2.46552 5.75468 5.59952 2.62067 9.46552 2.62067ZM18.4655 9.62067C18.4655 4.65011 14.4361 0.620674 9.46552 0.620674C4.49495 0.620674 0.465515 4.65011 0.465515 9.62067C0.465515 11.1374 0.841494 12.5692 1.50613 13.8251C1.60987 14.7509 1.41764 15.6889 0.952847 16.5022L0.911831 16.574C0.390715 17.486 1.0492 18.6207 2.09955 18.6207C3.56741 18.6207 5.02684 18.4458 6.44744 18.1019C7.39216 18.4381 8.40858 18.6207 9.46552 18.6207C14.4361 18.6207 18.4655 14.5912 18.4655 9.62067ZM20.8207 8.8788C20.3986 9.2349 20.345 9.8658 20.7012 10.2879C21.8026 11.5937 22.4655 13.2785 22.4655 15.1207C22.4655 16.4033 22.1444 17.6079 21.579 18.6614C21.4883 18.8304 21.4131 19.0331 21.384 19.2632C21.241 20.3938 21.3873 21.5392 21.8047 22.5929C20.7184 22.5318 19.6411 22.37 18.5867 22.11C18.2308 22.0223 17.8653 22.0487 17.5363 22.1688C16.7358 22.4609 15.8704 22.6207 14.9655 22.6207C13.1233 22.6207 11.4385 21.9578 10.1328 20.8563C9.71064 20.5002 9.07974 20.5537 8.72363 20.9759C8.36753 21.398 8.42107 22.0289 8.84321 22.385C10.4962 23.7794 12.6339 24.6207 14.9655 24.6207C16.0878 24.6207 17.1667 24.4256 18.1688 24.0668C19.6791 24.434 21.231 24.6207 22.7918 24.6207C23.8598 24.6207 24.5294 23.4669 23.9995 22.5396L23.9995 22.5396L23.9559 22.4634C23.4535 21.5841 23.2469 20.5698 23.3616 19.5691C24.0665 18.241 24.4655 16.726 24.4655 15.1207C24.4655 12.7891 23.6243 10.6513 22.2299 8.99837C21.8738 8.57623 21.2429 8.52269 20.8207 8.8788ZM5.46552 10.6207C6.0178 10.6207 6.46552 10.173 6.46552 9.62067C6.46552 9.06839 6.0178 8.62067 5.46552 8.62067C4.91323 8.62067 4.46552 9.06839 4.46552 9.62067C4.46552 10.173 4.91323 10.6207 5.46552 10.6207ZM10.4655 9.62067C10.4655 10.173 10.0178 10.6207 9.46552 10.6207C8.91323 10.6207 8.46552 10.173 8.46552 9.62067C8.46552 9.06839 8.91323 8.62067 9.46552 8.62067C10.0178 8.62067 10.4655 9.06839 10.4655 9.62067ZM13.4655 10.6207C14.0178 10.6207 14.4655 10.173 14.4655 9.62067C14.4655 9.06839 14.0178 8.62067 13.4655 8.62067C12.9132 8.62067 12.4655 9.06839 12.4655 9.62067C12.4655 10.173 12.9132 10.6207 13.4655 10.6207Z" fill="#000"/>
</svg>
