<svg width="192" height="192" viewBox="0 0 192 192" fill="none" xmlns="http://www.w3.org/2000/svg">
<g clip-path="url(#clip0_3487_30547)">
<rect x="0.5" y="1" width="191" height="191" rx="95.5" stroke="#EC6153" stroke-opacity="0.38"/>
<rect x="32.5" y="33" width="127" height="127" rx="63.5" stroke="#EC6153" stroke-opacity="0.67"/>
<g filter="url(#filter0_d_3487_30547)">
<rect x="64" y="64.5" width="64" height="64" rx="32" fill="#EC6153"/>
<path d="M109.2 95.3C107.489 93.5889 105.506 92.25 103.25 91.2833C100.994 90.3167 98.5778 89.8333 96 89.8333C95.5333 89.8333 95.0769 89.85 94.6308 89.8833C94.1846 89.9167 93.7521 89.9667 93.3333 90.0333L90.7795 87.4795C91.5607 87.2727 92.3821 87.1176 93.2436 87.0142C94.1051 86.9107 95.0239 86.859 96 86.859C99.0102 86.859 101.818 87.4201 104.423 88.5424C107.028 89.6646 109.314 91.2094 111.282 93.177L109.2 95.3ZM103.867 100.567L103.099 99.7987L102.331 99.0308L98.5437 95.2437C99.8223 95.4215 101.074 95.815 102.299 96.4244C103.523 97.0338 104.629 97.8317 105.615 98.818L103.867 100.567ZM106.436 109.813L94.6462 97.9564C93.4479 98.1068 92.3154 98.4393 91.2487 98.9538C90.1821 99.4684 89.2547 100.139 88.4667 100.967L86.3847 98.8436C87.1727 98.0556 88.0612 97.3735 89.0501 96.7975C90.039 96.2214 91.0856 95.7889 92.1899 95.5L88.2411 91.5513C87.2787 91.9837 86.3282 92.5196 85.3898 93.159C84.4513 93.7983 83.588 94.5119 82.8 95.3L80.7437 93.177C81.5402 92.3804 82.3902 91.6582 83.2937 91.0103C84.1971 90.3624 85.1078 89.8043 86.0257 89.3359L83.0975 86.4077L84.5026 85.0026L107.908 108.408L106.436 109.813ZM96 108.5L92.018 104.497C92.5325 103.983 93.1278 103.581 93.8039 103.292C94.4799 103.003 95.212 102.859 96 102.859C96.788 102.859 97.5201 103.003 98.1961 103.292C98.8722 103.581 99.4675 103.983 99.982 104.497L96 108.5Z" fill="white"/>
</g>
</g>
<defs>
<filter id="filter0_d_3487_30547" x="52" y="52.5" width="96" height="96" filterUnits="userSpaceOnUse" color-interpolation-filters="sRGB">
<feFlood flood-opacity="0" result="BackgroundImageFix"/>
<feColorMatrix in="SourceAlpha" type="matrix" values="0 0 0 0 0 0 0 0 0 0 0 0 0 0 0 0 0 0 127 0" result="hardAlpha"/>
<feOffset dx="4" dy="4"/>
<feGaussianBlur stdDeviation="8"/>
<feComposite in2="hardAlpha" operator="out"/>
<feColorMatrix type="matrix" values="0 0 0 0 0.92549 0 0 0 0 0.380392 0 0 0 0 0.32549 0 0 0 0.2 0"/>
<feBlend mode="normal" in2="BackgroundImageFix" result="effect1_dropShadow_3487_30547"/>
<feBlend mode="normal" in="SourceGraphic" in2="effect1_dropShadow_3487_30547" result="shape"/>
</filter>
<clipPath id="clip0_3487_30547">
<rect width="192" height="192" fill="white"/>
</clipPath>
</defs>
</svg>
