<svg width="731" height="381" viewBox="0 0 731 381" fill="none" xmlns="http://www.w3.org/2000/svg">
<path d="M661.1 377.462C708.44 355.513 729.082 293.337 728.134 244.725C727.187 196.112 704.187 139.02 657.401 117.994C613.736 98.355 564.94 116.631 524.303 135.184C499.685 146.436 476.131 163.788 448.646 167.3C413.465 171.921 400.428 135.669 383.022 112.726C381.496 110.693 379.901 108.683 378.399 106.673C358.936 82.4588 343.425 64.0673 302.765 60.6016L65.5557 209.097" fill="white"/>
<path d="M661.1 377.462C708.44 355.513 729.082 293.337 728.134 244.725C727.187 196.112 704.187 139.02 657.401 117.994C613.736 98.355 564.94 116.631 524.303 135.184C499.685 146.436 476.131 163.788 448.646 167.3C413.465 171.921 400.428 135.669 383.022 112.726C381.496 110.693 379.901 108.683 378.399 106.673C358.936 82.4588 343.425 64.0673 302.765 60.6016L65.5557 209.097" stroke="#D7DBFA" stroke-width="2.5" stroke-miterlimit="10"/>
<path d="M67.2427 208.473L65.5553 209.096C51.4859 214.638 38.6385 222.88 27.7385 233.357C-15.9264 276.286 3.55987 340.171 43.9193 377.531H661.099" fill="white"/>
<path d="M67.2427 208.473L65.5553 209.096C51.4859 214.638 38.6385 222.88 27.7385 233.357C-15.9264 276.286 3.55987 340.171 43.9193 377.531H661.099" stroke="#D7DBFA" stroke-width="2.5" stroke-miterlimit="10"/>
<path d="M269.109 2.88672H107.833L27.207 142.487L107.833 282.086H269.109L349.736 142.487L269.109 2.88672Z" fill="white"/>
<path d="M269.109 2.88672H107.833L27.207 142.487L107.833 282.086H269.109L349.736 142.487L269.109 2.88672Z" stroke="#D7DBFA" stroke-width="2.5" stroke-miterlimit="10"/>
<path d="M243.914 205.887H236.979C224.513 205.862 212.566 200.895 203.76 192.076C194.954 183.257 190.009 171.305 190.009 158.845V130.033C190.009 117.555 194.966 105.588 203.792 96.7618C212.617 87.9362 224.588 82.9749 237.072 82.9688H244.006C250.189 82.9687 256.31 84.1863 262.022 86.5518C267.733 88.9173 272.922 92.3844 277.293 96.7551C281.663 101.126 285.13 106.314 287.493 112.024C289.857 117.734 291.072 123.854 291.069 130.033V158.845C291.072 165.024 289.857 171.142 287.493 176.851C285.129 182.56 281.662 187.747 277.292 192.116C272.921 196.484 267.731 199.949 262.02 202.312C256.309 204.675 250.188 205.89 244.006 205.887" fill="#D7DBFA"/>
<path d="M248.837 109.308C248.86 110.848 248.424 112.36 247.585 113.652C246.746 114.944 245.541 115.957 244.124 116.562C242.707 117.167 241.142 117.338 239.627 117.051C238.113 116.765 236.719 116.035 235.621 114.954C234.523 113.873 233.772 112.49 233.463 110.981C233.153 109.472 233.3 107.905 233.885 106.48C234.469 105.055 235.464 103.835 236.744 102.977C238.023 102.119 239.53 101.66 241.071 101.66C242.091 101.657 243.103 101.856 244.046 102.245C244.99 102.634 245.848 103.206 246.569 103.927C247.291 104.649 247.863 105.506 248.252 106.449C248.642 107.392 248.84 108.403 248.837 109.423" fill="white"/>
<path d="M219.365 144.426C219.365 138.672 221.652 133.154 225.723 129.085C229.793 125.016 235.314 122.73 241.071 122.73C246.827 122.73 252.348 125.016 256.419 129.085C260.489 133.154 262.776 138.672 262.776 144.426H219.365Z" fill="white"/>
<path d="M258.083 187.518H222.901C219.836 187.518 216.896 186.301 214.729 184.135C212.561 181.968 211.344 179.03 211.344 175.966V174.302C211.344 171.239 212.561 168.3 214.729 166.134C216.896 163.967 219.836 162.75 222.901 162.75H258.083C261.148 162.75 264.088 163.967 266.255 166.134C268.423 168.3 269.641 171.239 269.641 174.302V175.966C269.641 179.03 268.423 181.968 266.255 184.135C264.088 186.301 261.148 187.518 258.083 187.518Z" fill="#FAFAFA"/>
<path d="M158.525 122.176H97.5234" stroke="#D7DBFA" stroke-width="2.5" stroke-linecap="round" stroke-linejoin="round"/>
<path d="M158.525 136.434H97.5234" stroke="#D7DBFA" stroke-width="2.5" stroke-linecap="round" stroke-linejoin="round"/>
<path d="M158.525 149.164H97.5234" stroke="#D7DBFA" stroke-width="2.5" stroke-linecap="round" stroke-linejoin="round"/>
<path d="M158.525 163.418H97.5234" stroke="#D7DBFA" stroke-width="2.5" stroke-linecap="round" stroke-linejoin="round"/>
<path d="M158.525 109.445H97.5234" stroke="#D7DBFA" stroke-width="2.5" stroke-linecap="round" stroke-linejoin="round"/>
<path d="M158.525 176.152H97.5234" stroke="#D7DBFA" stroke-width="2.5" stroke-linecap="round" stroke-linejoin="round"/>
<path d="M175.677 268.663C175.677 268.663 147.43 265.936 150.481 237.286C153.533 208.636 159.104 209.907 184.461 198.008C184.461 198.008 205.265 198.008 210.951 204.131C216.638 210.253 220.197 198.008 220.197 198.008C220.197 198.008 246.965 164.044 280.667 171.16C314.369 178.276 254.269 205.309 254.269 205.309C254.269 205.309 215.551 205.84 225.56 220.212C225.56 220.212 231.385 231.002 228.034 240.013C224.682 249.023 224.82 263.395 222.601 263.857C220.382 264.319 187.235 271.481 187.235 271.481L175.677 268.663Z" fill="white"/>
<path d="M261.458 377.417H262.984C266.586 377.42 270.153 376.713 273.482 375.337C276.811 373.962 279.836 371.944 282.384 369.399C284.932 366.854 286.953 363.832 288.332 360.506C289.712 357.18 290.422 353.615 290.422 350.014V272.035" fill="white"/>
<path d="M261.458 377.417H262.984C266.586 377.42 270.153 376.713 273.482 375.337C276.811 373.962 279.836 371.944 282.384 369.399C284.932 366.854 286.953 363.832 288.332 360.506C289.712 357.18 290.422 353.615 290.422 350.014V272.035" stroke="#D7DBFA" stroke-width="2.5" stroke-miterlimit="10"/>
<path d="M125.632 328.298C120.338 324.693 119.252 318.016 120.87 312.124C127.527 287.841 155.312 293.64 173.735 297.869C184.706 300.482 195.468 303.903 205.934 308.104C214.603 311.57 223.086 316.214 232.425 317.508" fill="white"/>
<path d="M125.632 328.298C120.338 324.693 119.252 318.016 120.87 312.124C127.527 287.841 155.312 293.64 173.735 297.869C184.706 300.482 195.468 303.903 205.934 308.104C214.603 311.57 223.086 316.214 232.425 317.508" stroke="#D7DBFA" stroke-width="2.5" stroke-miterlimit="10"/>
<path d="M150.989 328.367C150.989 328.367 152.908 329.037 156.167 330.331C170.282 335.881 183.715 343.028 196.203 351.634C203.184 356.084 210.964 359.137 219.11 360.622" fill="white"/>
<path d="M150.989 328.367C150.989 328.367 152.908 329.037 156.167 330.331C170.282 335.881 183.715 343.028 196.203 351.634C203.184 356.084 210.964 359.137 219.11 360.622" stroke="#D7DBFA" stroke-width="2.5" stroke-miterlimit="10"/>
<path d="M234.736 342.412C231.838 341.921 228.859 342.412 226.271 343.805C223.683 345.199 221.635 347.416 220.451 350.106C219.33 352.591 218.803 355.303 218.911 358.026C219.019 360.75 219.759 363.412 221.073 365.8C222.387 368.189 224.238 370.24 226.481 371.791C228.724 373.341 231.297 374.35 233.996 374.736C243.588 376.284 253.271 377.194 262.983 377.462" fill="white"/>
<path d="M234.736 342.412C231.838 341.921 228.859 342.412 226.271 343.805C223.683 345.199 221.635 347.416 220.451 350.106C219.33 352.591 218.803 355.303 218.911 358.026C219.019 360.75 219.759 363.412 221.073 365.8C222.387 368.189 224.238 370.24 226.481 371.791C228.724 373.341 231.297 374.35 233.996 374.736C243.588 376.284 253.271 377.194 262.983 377.462" stroke="#D7DBFA" stroke-width="2.5" stroke-miterlimit="10"/>
<path d="M652.917 165.613L663.689 161.385C666.067 160.559 668.671 160.675 670.966 161.709C673.262 162.744 675.073 164.617 676.029 166.945C676.985 169.273 677.013 171.879 676.106 174.227C675.2 176.574 673.428 178.486 671.155 179.568L648.571 190.335L614.869 352.994C612.986 360.016 608.836 366.221 603.064 370.645C597.292 375.069 590.22 377.466 582.947 377.462H360.415C347.421 377.476 334.551 374.93 322.541 369.971C310.532 365.011 299.617 357.735 290.422 348.558" fill="white"/>
<path d="M652.917 165.613L663.689 161.385C666.067 160.559 668.671 160.675 670.966 161.709C673.262 162.744 675.073 164.617 676.029 166.945C676.985 169.273 677.013 171.879 676.106 174.227C675.2 176.574 673.428 178.486 671.155 179.568L648.571 190.335L614.869 352.994C612.986 360.016 608.836 366.221 603.064 370.645C597.292 375.069 590.22 377.466 582.947 377.462H360.415C347.421 377.476 334.551 374.93 322.541 369.971C310.532 365.011 299.617 357.735 290.422 348.558" stroke="#D7DBFA" stroke-width="2.5" stroke-miterlimit="10"/>
<path d="M236.493 355.167L226.53 254.014C226.521 244.413 229.325 235.019 234.595 226.992C239.865 218.965 247.372 212.656 256.187 208.844C262.629 205.983 269.631 204.605 276.677 204.813C283.723 205.021 290.632 206.809 296.893 210.045C297.726 210.461 298.558 210.9 299.39 211.362C299.583 211.484 299.783 211.592 299.991 211.686C308.44 216.529 316.358 222.244 323.615 228.737L328.793 233.358C329.44 233.936 330.041 234.49 330.619 234.976C347.863 250.063 361.085 261.593 372.041 269.98L372.342 270.211C389.47 283.357 400.913 288.695 413.256 288.394C421.023 288.14 429.136 285.529 439.238 281.07C476.916 264.365 540.229 275.271 561.957 317.114" fill="white"/>
<path d="M236.493 355.167L226.53 254.014C226.521 244.413 229.325 235.019 234.595 226.992C239.865 218.965 247.372 212.656 256.187 208.844C262.629 205.983 269.631 204.605 276.677 204.813C283.723 205.021 290.632 206.809 296.893 210.045C297.726 210.461 298.558 210.9 299.39 211.362C299.583 211.484 299.783 211.592 299.991 211.686C308.44 216.529 316.358 222.244 323.615 228.737L328.793 233.358C329.44 233.936 330.041 234.49 330.619 234.976C347.863 250.063 361.085 261.593 372.041 269.98L372.342 270.211C389.47 283.357 400.913 288.695 413.256 288.394C421.023 288.14 429.136 285.529 439.238 281.07C476.916 264.365 540.229 275.271 561.957 317.114" stroke="#D7DBFA" stroke-width="2.5" stroke-miterlimit="10"/>
<path d="M574.602 270.186L596.191 209.513L597.879 204.776L603.311 189.573C603.735 188.42 604.319 187.331 605.044 186.338C606.554 184.161 608.691 182.493 611.17 181.556L652.963 165.613" fill="white"/>
<path d="M574.602 270.186L596.191 209.513L597.879 204.776L603.311 189.573C603.735 188.42 604.319 187.331 605.044 186.338C606.554 184.161 608.691 182.493 611.17 181.556L652.963 165.613" stroke="#D7DBFA" stroke-width="2.5" stroke-miterlimit="10"/>
<path d="M439.469 377.463H361.709C348.832 377.472 336.08 374.945 324.181 370.025C312.282 365.105 301.47 357.889 292.363 348.79C292.352 350.692 292.151 352.588 291.762 354.45V302.672C266.197 272.844 236.424 288.001 232.425 290.242C230.645 273.306 229.073 259.951 229.073 259.951C229.073 259.951 224.728 223.607 258.43 210.253L259.262 209.929C275.05 203.991 289.312 206.925 301.263 212.771C301.447 212.771 301.656 212.956 301.84 213.094C314.369 219.494 324.332 228.967 330.55 234.513L332.353 236.13C338.64 241.606 355.029 257.779 373.406 270.787L373.706 271.018C387.229 280.538 401.814 288.393 414.273 289.063C414.273 289.063 445.803 320.763 439.7 377.44" fill="#B0B8F5"/>
<path d="M433.043 283.587C426.805 286.262 420.148 287.826 413.372 288.208C410.186 288.334 406.999 288.031 403.894 287.307C394.648 285.297 385.171 279.775 372.457 270.025L372.157 269.794C361.2 261.407 347.978 249.877 330.734 234.79C330.156 234.305 329.555 233.75 328.908 233.173C327.221 231.717 325.487 230.215 323.73 228.552C316.466 222.063 308.541 216.356 300.083 211.523L299.482 211.177C298.65 210.715 297.818 210.276 296.986 209.86C295.12 208.894 293.189 208.06 291.207 207.364C286.348 205.613 281.231 204.684 276.066 204.615H272.9C232.078 205.816 223.086 215.312 223.086 215.312C227.244 220.967 229.792 227.642 230.46 234.628C227.108 234.097 223.733 235.136 223.155 238.856C222.462 243.477 221.399 247.613 217.168 250.409C214.581 251.92 211.521 252.406 208.593 251.772C207.787 251.528 206.969 251.327 206.142 251.171C205.82 251.092 205.504 250.992 205.195 250.871C196.642 247.752 191.626 248.953 193.267 258.103C195.186 268.87 181.108 270.279 171.839 268.615C155.497 261.268 151.035 232.572 163.98 214.897C164.304 214.434 164.697 213.972 165.066 213.487L166.245 212.101C167.216 211.052 168.25 210.064 169.343 209.143C169.713 208.82 170.082 208.496 170.499 208.196L171.932 207.11C172.393 206.745 172.88 206.413 173.388 206.117C177.773 203.236 182.697 201.275 187.862 200.354C193.028 199.432 198.327 199.569 203.438 200.756C207.593 202.241 211.492 204.361 214.996 207.041C214.996 207.041 215.319 206.533 215.966 205.631C217.477 206.534 218.936 207.522 220.335 208.589C220.335 208.589 244.861 171.182 280.435 171.621C283.298 171.643 286.151 171.976 288.942 172.615C316.68 182.434 335.519 217.785 352.509 223.214C353.78 223.607 355.098 223.954 356.415 224.231C369.568 227.05 384.154 223.977 397.283 223.145C405.909 222.36 414.605 223.024 423.011 225.109C424.06 225.396 425.093 225.735 426.108 226.126C437.666 230.284 449.224 239.526 451.974 251.795C455.141 265.404 444.809 278.135 433.135 283.472" fill="#FFEA9B"/>
<path d="M676.587 170.535C676.234 171.967 675.562 173.301 674.621 174.437C673.681 175.573 672.496 176.483 671.155 177.097L648.548 187.864L600.676 206.348L605.623 189.458C607.134 187.347 609.243 185.738 611.679 184.837L652.917 168.086L663.665 163.858C665.8 163.074 668.141 163.052 670.29 163.798C672.439 164.544 674.264 166.01 675.454 167.948C675.97 168.784 676.352 169.696 676.587 170.651" fill="#FFEA9B"/>
<path d="M575.295 268.246L574.602 270.187C561.842 304.244 560.386 324.137 560.386 324.137" stroke="#D7DBFA" stroke-width="2.5" stroke-miterlimit="10"/>
<path d="M230.414 234.882C227.478 205.192 192.597 188.371 168.002 204.66C167.609 204.891 167.24 205.169 166.823 205.446L166.431 205.631L164.997 206.694C163.491 207.896 162.077 209.209 160.767 210.621C160.351 211.084 159.958 211.546 159.588 212.008C159.195 212.47 158.826 212.955 158.502 213.417" stroke="#D7DBFA" stroke-width="2.5" stroke-miterlimit="10"/>
<path d="M171.816 268.73C176.368 273.292 181.73 276.967 187.627 279.567C211.274 289.109 222.763 271.087 222.763 271.087" stroke="#D7DBFA" stroke-width="2.5" stroke-miterlimit="10"/>
<path d="M426.478 286.016L428.628 285.3H428.859L429.414 285.092L431.286 284.422L432.465 283.937C444.369 278.738 455.118 265.823 451.905 251.983C448.808 238.605 435.516 228.878 422.872 225.297C414.466 223.212 405.77 222.548 397.145 223.333C382.79 224.234 366.424 227.954 352.347 223.333C332.676 217.071 310.508 170.63 274.934 170.191C239.359 169.752 214.834 207.159 214.834 207.159" stroke="#D7DBFA" stroke-width="2.5" stroke-miterlimit="10"/>
<path d="M223.063 215.568C223.063 215.568 230.414 205.609 273.917 204.801" stroke="#D7DBFA" stroke-width="2.5" stroke-miterlimit="10"/>
<path d="M554.052 170.142L542.656 189.088L512.883 229.083L508.931 210.922C508.986 208.275 509.84 205.706 511.381 203.552L537.455 167.208L540.275 163.696C541.627 161.842 543.585 160.52 545.81 159.959C548.035 159.397 550.387 159.632 552.457 160.623C553.561 161.118 554.552 161.834 555.369 162.726C555.67 163.98 555.718 165.281 555.512 166.554C555.306 167.827 554.849 169.047 554.167 170.142" fill="#FFEA9B"/>
<path d="M578.809 258.334L542.679 189.019L554.029 170.073C555.033 168.472 555.555 166.616 555.53 164.727C555.505 162.838 554.936 160.996 553.89 159.422C552.896 157.908 551.494 156.706 549.845 155.956C547.786 154.996 545.46 154.776 543.258 155.331C541.055 155.887 539.112 157.185 537.756 159.006L534.936 162.564" fill="#FFEA9B"/>
<path d="M578.809 258.334L542.679 189.019L554.029 170.073C555.033 168.472 555.555 166.616 555.53 164.727C555.505 162.838 554.936 160.996 553.89 159.422C552.896 157.908 551.494 156.706 549.845 155.956C547.786 154.996 545.46 154.776 543.258 155.331C541.055 155.887 539.112 157.185 537.756 159.006L534.936 162.564" stroke="#D7DBFA" stroke-width="2.5" stroke-miterlimit="10"/>
<path d="M534.936 162.633L508.885 198.954C507.328 201.101 506.465 203.673 506.411 206.324C506.355 207.559 506.471 208.796 506.758 209.998L510.642 225.617L511.844 230.515L524.927 283.425" fill="#FFEA9B"/>
<path d="M534.936 162.633L508.885 198.954C507.328 201.101 506.465 203.673 506.411 206.324C506.355 207.559 506.471 208.796 506.758 209.998L510.642 225.617L511.844 230.515L524.927 283.425" stroke="#D7DBFA" stroke-width="2.5" stroke-miterlimit="10"/>
<path d="M167.934 204.66C144.217 219.355 146.922 258.61 166.547 267.251C174.036 270.555 195.51 271.364 193.152 258.194C191.534 248.952 196.55 247.866 205.103 250.962C219.92 256.323 223.064 241.998 223.064 241.004" stroke="#D7DBFA" stroke-width="2.5" stroke-miterlimit="10"/>
<path d="M218.371 275.777L228.056 278.642" stroke="#D7DBFA" stroke-width="2.5" stroke-miterlimit="10"/>
<path d="M141.905 320.694L132.659 339.825C132.334 340.547 131.864 341.195 131.278 341.729C130.692 342.263 130.003 342.671 129.254 342.929C128.504 343.186 127.709 343.287 126.919 343.226C126.129 343.165 125.359 342.942 124.658 342.572C123.958 342.202 123.34 341.692 122.844 341.074C122.348 340.456 121.983 339.744 121.773 338.979C121.564 338.215 121.513 337.416 121.624 336.632C121.735 335.847 122.005 335.094 122.419 334.418L124.222 331.276C124.281 331.11 124.351 330.948 124.43 330.791L125.678 328.272L136.288 306.877C137.578 304.258 139.505 302.004 141.891 300.321C144.278 298.637 147.048 297.579 149.949 297.242H150.18" stroke="#D7DBFA" stroke-width="2.5" stroke-miterlimit="10"/>
<path d="M162.409 319.193L148.701 323.168C147.929 323.392 147.12 323.462 146.32 323.374C145.52 323.286 144.746 323.041 144.04 322.654C143.335 322.267 142.713 321.745 142.21 321.117C141.707 320.49 141.333 319.769 141.108 318.997C140.883 318.225 140.813 317.416 140.901 316.617C140.989 315.817 141.234 315.043 141.621 314.338C142.009 313.634 142.531 313.012 143.159 312.509C143.787 312.006 144.508 311.632 145.28 311.407L164.72 305.77" stroke="#D7DBFA" stroke-width="2.5" stroke-miterlimit="10"/>
<path d="M151.868 322.242C152.386 324.319 152.071 326.517 150.99 328.365C148.424 332.547 141.928 334.026 136.866 333.148" stroke="#D7DBFA" stroke-width="2.5" stroke-miterlimit="10"/>
<path d="M230.576 289.894H230.091L230.553 289.617C230.553 289.756 230.553 289.871 230.553 290.01" fill="#2E2E2E"/>
<path d="M191.673 377.996L79.2165 356.624C78.4195 356.474 77.6599 356.168 76.981 355.725C76.3021 355.282 75.7174 354.709 75.2601 354.039C74.8029 353.37 74.4821 352.617 74.3161 351.823C74.1502 351.03 74.1423 350.211 74.293 349.415L74.4548 348.537C74.7686 346.929 75.7047 345.51 77.0595 344.589C78.4144 343.667 80.0785 343.317 81.6899 343.616L194.169 365.057C194.966 365.207 195.724 365.512 196.402 365.956C197.08 366.4 197.663 366.973 198.119 367.643C198.574 368.313 198.893 369.066 199.056 369.86C199.219 370.653 199.224 371.471 199.07 372.266L198.908 373.144C198.589 374.745 197.649 376.154 196.293 377.064C194.937 377.973 193.276 378.308 191.673 377.996Z" stroke="#D7DBFA" stroke-width="2.5" stroke-miterlimit="10"/>
<path d="M92.3457 359.117V377.462" stroke="#D7DBFA" stroke-width="2.5" stroke-miterlimit="10"/>
<path d="M7.35059 377.465H692.12" stroke="#D7DBFA" stroke-width="2.5" stroke-miterlimit="10"/>
<path d="M236.493 355.167L226.53 254.014C226.521 244.413 229.325 235.019 234.595 226.992C239.865 218.965 247.372 212.656 256.187 208.844C262.629 205.983 269.631 204.605 276.677 204.813C283.723 205.021 290.632 206.809 296.893 210.045C297.726 210.461 298.558 210.9 299.39 211.362C299.583 211.484 299.783 211.592 299.991 211.686C308.44 216.529 316.358 222.244 323.615 228.737L328.793 233.358C329.44 233.936 330.041 234.49 330.619 234.976C347.863 250.063 361.085 261.593 372.041 269.98L372.342 270.211C389.47 283.357 400.913 288.695 413.256 288.394C421.023 288.14 429.136 285.529 439.238 281.07C476.916 264.365 540.229 275.271 561.957 317.114" stroke="#D7DBFA" stroke-width="2.5" stroke-miterlimit="10"/>
<path d="M652.917 165.613L663.689 161.385C666.067 160.559 668.671 160.675 670.966 161.709C673.262 162.744 675.073 164.617 676.029 166.945C676.985 169.273 677.013 171.879 676.106 174.227C675.2 176.574 673.428 178.486 671.155 179.568L648.571 190.335L614.869 352.994C612.986 360.016 608.836 366.221 603.064 370.645C597.292 375.069 590.22 377.466 582.947 377.462H360.415C347.421 377.476 334.551 374.93 322.541 369.971C310.532 365.011 299.617 357.735 290.422 348.558" stroke="#D7DBFA" stroke-width="2.5" stroke-miterlimit="10"/>
</svg>
