<svg width="128" height="129" viewBox="0 0 128 129" fill="none" xmlns="http://www.w3.org/2000/svg">
<path d="M4 30.5H124V54.5H4V30.5Z" fill="#FFEE9C"/>
<path d="M8 34.5H124V54.5H8V34.5Z" fill="#FFDE3E"/>
<path d="M64 30.5L52 54.5H64L76 30.5H64Z" fill="#8A8784"/>
<path d="M62 34.5L52 54.5H64L74 34.5H62Z" fill="#76736F"/>
<path d="M40 30.5L28 54.5H40L52 30.5H40Z" fill="#8A8784"/>
<path d="M38 34.5L28 54.5H40L50 34.5H38Z" fill="#76736F"/>
<path d="M16 30.5L4 54.5H16L28 30.5H16Z" fill="#8A8784"/>
<path d="M8 46.5V54.5H16L26 34.5H14L8 46.5Z" fill="#76736F"/>
<path d="M88 30.5L76 54.5H88L100 30.5H88Z" fill="#8A8784"/>
<path d="M86 34.5L76 54.5H88L98 34.5H86Z" fill="#76736F"/>
<path d="M112 30.5L100 54.5H112L124 30.5H112Z" fill="#8A8784"/>
<path d="M110 34.5L100 54.5H112L122 34.5H110Z" fill="#76736F"/>
<path d="M104 54.5H116V112.5H104V54.5Z" fill="#D0D5DE"/>
<path d="M104 74.5H116V94.5H104V74.5Z" fill="#BAC2CE"/>
<path d="M104 54.5H116V58.5H104V54.5Z" fill="#BAC2CE"/>
<path d="M100 112.5H120C121.061 112.5 122.078 112.921 122.828 113.672C123.579 114.422 124 115.439 124 116.5V120.5H96V116.5C96 115.439 96.4214 114.422 97.1716 113.672C97.9217 112.921 98.9391 112.5 100 112.5Z" fill="#8A8784"/>
<path d="M100 118.5V120.5H124V116.5H102C101.47 116.5 100.961 116.711 100.586 117.086C100.211 117.461 100 117.97 100 118.5Z" fill="#76736F"/>
<path d="M24 112.5H12V54.5H24V112.5Z" fill="#D0D5DE"/>
<path d="M12 82.5H24V94.5H12V82.5Z" fill="#BAC2CE"/>
<path d="M12 54.5H24V58.5H12V54.5Z" fill="#BAC2CE"/>
<path d="M32 120.5H4V116.5C4 115.439 4.42143 114.422 5.17157 113.672C5.92172 112.921 6.93913 112.5 8 112.5H28C29.0609 112.5 30.0783 112.921 30.8284 113.672C31.5786 114.422 32 115.439 32 116.5V120.5Z" fill="#8A8784"/>
<path d="M8 118.5V120.5H32V116.5H10C9.46957 116.5 8.96086 116.711 8.58579 117.086C8.21071 117.461 8 117.97 8 118.5Z" fill="#76736F"/>
<path d="M23 20.5H13V13.5C13 12.8434 13.1293 12.1932 13.3806 11.5866C13.6319 10.98 14.0002 10.4288 14.4645 9.96447C14.9288 9.50017 15.48 9.13188 16.0866 8.8806C16.6932 8.62933 17.3434 8.5 18 8.5C19.3261 8.5 20.5979 9.02678 21.5355 9.96447C22.4732 10.9021 23 12.1739 23 13.5V20.5Z" fill="#FF826D"/>
<path d="M17 17.5V20.5H23V13.5C22.9971 13.1952 22.9663 12.8912 22.908 12.592C22.1864 12.4507 21.4424 12.4718 20.73 12.6537C20.0175 12.8355 19.3545 13.1736 18.7889 13.6435C18.2233 14.1134 17.7694 14.7032 17.4599 15.3702C17.1505 16.0372 16.9934 16.7647 17 17.5Z" fill="#FF5555"/>
<path d="M26 30.5H10V23.5C10 22.7044 10.3161 21.9413 10.8787 21.3787C11.4413 20.8161 12.2044 20.5 13 20.5H23C23.7956 20.5 24.5587 20.8161 25.1213 21.3787C25.6839 21.9413 26 22.7044 26 23.5V30.5Z" fill="#E4E7EC"/>
<path d="M26 30.5V24.5H15C14.7348 24.5 14.4804 24.6054 14.2929 24.7929C14.1054 24.9804 14 25.2348 14 25.5V30.5H26Z" fill="#D0D5DE"/>
<path d="M110 8.5C111.326 8.5 112.598 9.02678 113.536 9.96447C114.473 10.9021 115 12.1739 115 13.5V20.5H105V13.5C105 12.1739 105.527 10.9021 106.464 9.96447C107.402 9.02678 108.674 8.5 110 8.5Z" fill="#FF826D"/>
<path d="M109 17.5V20.5H115V13.5C114.997 13.1952 114.966 12.8912 114.908 12.592C114.186 12.4507 113.442 12.4718 112.73 12.6537C112.018 12.8355 111.354 13.1736 110.789 13.6435C110.223 14.1134 109.769 14.7032 109.46 15.3702C109.151 16.0372 108.993 16.7647 109 17.5Z" fill="#FF5555"/>
<path d="M105 20.5H115C115.796 20.5 116.559 20.8161 117.121 21.3787C117.684 21.9413 118 22.7044 118 23.5V30.5H102V23.5C102 22.7044 102.316 21.9413 102.879 21.3787C103.441 20.8161 104.204 20.5 105 20.5Z" fill="#E4E7EC"/>
<path d="M118 30.5V24.5H107C106.735 24.5 106.48 24.6054 106.293 24.7929C106.105 24.9804 106 25.2348 106 25.5V30.5H118Z" fill="#D0D5DE"/>
<path d="M4 66.5H124V90.5H4V66.5Z" fill="#FFEE9C"/>
<path d="M8 70.5H124V90.5H8V70.5Z" fill="#FFDE3E"/>
<path d="M64 66.5L52 90.5H64L76 66.5H64Z" fill="#8A8784"/>
<path d="M62 70.5L52 90.5H64L74 70.5H62Z" fill="#76736F"/>
<path d="M40 66.5L28 90.5H40L52 66.5H40Z" fill="#8A8784"/>
<path d="M38 70.5L28 90.5H40L50 70.5H38Z" fill="#76736F"/>
<path d="M16 66.5L4 90.5H16L28 66.5H16Z" fill="#8A8784"/>
<path d="M8 82.5V90.5H16L26 70.5H14L8 82.5Z" fill="#76736F"/>
<path d="M88 66.5L76 90.5H88L100 66.5H88Z" fill="#8A8784"/>
<path d="M86 70.5L76 90.5H88L98 70.5H86Z" fill="#76736F"/>
<path d="M112 66.5L100 90.5H112L124 66.5H112Z" fill="#8A8784"/>
<path d="M110 70.5L100 90.5H112L122 70.5H110Z" fill="#76736F"/>
</svg>
