<svg width="18" height="18" viewBox="0 0 18 18" fill="none" xmlns="http://www.w3.org/2000/svg">
<path d="M6.5129 10.0065C6.66462 9.70361 6.75 9.36178 6.75 9C6.75 8.63822 6.66462 8.29639 6.5129 7.99355M6.5129 10.0065C6.1435 10.7438 5.38086 11.25 4.5 11.25C3.25736 11.25 2.25 10.2426 2.25 9C2.25 7.75736 3.25736 6.75 4.5 6.75C5.38086 6.75 6.1435 7.25619 6.5129 7.99355M6.5129 10.0065L11.4871 12.4935M6.5129 7.99355L11.4871 5.50645M11.4871 5.50645C11.8565 6.24381 12.6191 6.75 13.5 6.75C14.7426 6.75 15.75 5.74264 15.75 4.5C15.75 3.25736 14.7426 2.25 13.5 2.25C12.2574 2.25 11.25 3.25736 11.25 4.5C11.25 4.86178 11.3354 5.20361 11.4871 5.50645ZM11.4871 12.4935C11.3354 12.7964 11.25 13.1382 11.25 13.5C11.25 14.7426 12.2574 15.75 13.5 15.75C14.7426 15.75 15.75 14.7426 15.75 13.5C15.75 12.2574 14.7426 11.25 13.5 11.25C12.6191 11.25 11.8565 11.7562 11.4871 12.4935Z" stroke="#323232" stroke-width="2" stroke-linecap="round" stroke-linejoin="round"/>
</svg>
